<svg width="68" height="11" viewBox="0 0 68 11" fill="none" xmlns="http://www.w3.org/2000/svg">
<path d="M4.71 0.409999C5.94333 0.409999 6.97 0.943333 7.79 2.01C8.25 2.67 8.47333 3.47 8.46 4.41C8.28 5.63 7.7 6.34667 6.72 6.56L6.2 6.57C5.78 6.48333 5.40333 6.32 5.07 6.08C4.92333 6.24 4.56 6.36 3.98 6.44C3.36667 6.33333 2.93667 6.16 2.69 5.92C2.44333 5.68 2.30333 5.34667 2.27 4.92V4.55C2.26333 3.67 2.64 3.04 3.4 2.66C3.57333 2.56667 3.76667 2.52 3.98 2.52H4.63C5.09 2.52 5.48 2.73667 5.8 3.17C6.04 3.17 6.16 3.34 6.16 3.68C6.16 3.97333 6.06333 4.41 5.87 4.99V5.35C6.28333 5.76333 6.69 5.85333 7.09 5.62C7.43667 5.44 7.64667 5 7.72 4.3L7.61 3.43C7.23 2.46333 6.71 1.85 6.05 1.59C5.56333 1.37 5.05333 1.24667 4.52 1.22C2.94667 1.23333 1.96333 1.99333 1.57 3.5C1.43 3.96667 1.4 4.54 1.48 5.22C1.65333 6.03333 2.03 6.66 2.61 7.1C3.35667 7.53333 4.08 7.75 4.78 7.75C5.30667 7.75 5.9 7.48333 6.56 6.95L6.7 6.88C7.08667 6.91333 7.28 7.10667 7.28 7.46C6.68667 8.25333 5.77333 8.66333 4.54 8.69C3.18 8.60333 2.1 8.10333 1.3 7.19C0.793333 6.38333 0.536667 5.47667 0.53 4.47C0.55 2.97 1.01 1.91667 1.91 1.31C2.65 0.709999 3.58333 0.409999 4.71 0.409999ZM3.25 4.55V4.85C3.28333 5.13667 3.43333 5.32333 3.7 5.41H4.16C4.73333 5.33667 4.96333 4.76 4.85 3.68C4.76333 3.63333 4.66667 3.57333 4.56 3.5H4.05C3.59667 3.57333 3.33 3.92333 3.25 4.55ZM13.9865 0.49C14.1132 0.49 14.2265 0.616666 14.3265 0.869999C14.3465 1.41667 14.3565 1.81667 14.3565 2.07V4.76C14.3832 5.40667 14.4198 6.09667 14.4665 6.83C14.4598 7.05 14.4498 7.20667 14.4365 7.3C14.0632 7.9 13.4398 8.2 12.5665 8.2C11.3132 7.93333 10.6932 7.22 10.7065 6.06L10.6965 5.36C10.7698 4.47333 11.4165 3.95 12.6365 3.79C12.9098 3.73667 13.1365 3.71 13.3165 3.71L13.4665 3.64V1.39C13.4665 1.27667 13.4632 1.14667 13.4565 1C13.4632 0.66 13.6398 0.49 13.9865 0.49ZM11.6165 5.27C11.5032 5.57 11.4865 5.91667 11.5665 6.31C11.6865 6.89 12.0198 7.19667 12.5665 7.23H12.7165C12.8165 7.23 13.0765 7.16 13.4965 7.02C13.5698 6.96667 13.5998 6.89 13.5865 6.79L13.5165 4.99C13.4032 4.78333 13.2098 4.68 12.9365 4.68H12.8665C12.1998 4.67333 11.7832 4.87 11.6165 5.27ZM18.3009 2.51C19.5475 2.71667 20.1709 3.05 20.1709 3.51V3.64C20.1709 3.82667 20.1475 4.07333 20.1009 4.38C20.3275 5.65333 20.4309 6.35 20.4109 6.47L21.0009 6.46L21.3709 6.45C21.6375 6.55 21.7709 6.70333 21.7709 6.91C21.7709 7.15667 21.6609 7.29 21.4409 7.31H20.5009V7.91C20.5009 9.05667 19.9675 9.77 18.9009 10.05C18.6009 10.0967 18.3575 10.12 18.1709 10.12H17.7709C17.1642 10.12 16.8075 9.56333 16.7009 8.45C16.9809 7.20333 17.6042 6.58 18.5709 6.58C19.2375 6.53333 19.5709 6.49 19.5709 6.45C19.5709 5.87 19.5042 5.58 19.3709 5.58C19.3709 5.74667 19.1042 5.85667 18.5709 5.91C17.7042 5.91 17.1242 5.46667 16.8309 4.58V4.04C17.0575 3.02 17.5475 2.51 18.3009 2.51ZM17.7309 4.28V4.34C17.7309 4.64 17.9542 4.84333 18.4009 4.95H18.6709C18.8109 4.95 18.9409 4.72667 19.0609 4.28V3.78C18.7809 3.63333 18.5609 3.56 18.4009 3.56H18.2909C17.9175 3.61333 17.7309 3.85333 17.7309 4.28ZM17.6809 8.53V8.66C17.6809 9 17.7875 9.21667 18.0009 9.31C19.1275 9.31 19.6909 8.94333 19.6909 8.21V7.36C18.9242 7.36 18.3742 7.47667 18.0409 7.71C17.9009 7.81 17.8009 7.93333 17.7409 8.08L17.6809 8.53ZM27.1194 3.43C27.446 3.47 27.6227 3.65667 27.6494 3.99C27.6094 4.66333 27.5827 5.20333 27.5694 5.61L27.6194 7.57C27.5794 7.90333 27.426 8.06667 27.1594 8.06C26.906 7.95333 26.7894 7.72667 26.8094 7.38C26.2494 7.87333 25.696 8.11 25.1494 8.09C24.1294 8.06333 23.606 7.26 23.5794 5.68L23.6294 4.03C23.7694 3.81 23.9327 3.70667 24.1194 3.72C24.3794 3.74 24.5394 3.85 24.5994 4.05L24.5794 4.63C24.4794 5.96333 24.5627 6.74333 24.8294 6.97C25.016 7.07 25.186 7.10667 25.3394 7.08C26.346 6.98 26.796 6.16333 26.6894 4.63L26.6994 4.05C26.6794 3.66333 26.8194 3.45667 27.1194 3.43ZM29.8415 9.33H30.2215H33.7015C34.0215 9.37667 34.1815 9.52667 34.1815 9.78C34.1482 10.0267 34.0315 10.18 33.8315 10.24L33.2715 10.23H30.0615C29.6682 10.23 29.4715 10.0567 29.4715 9.71C29.4648 9.51 29.5882 9.38333 29.8415 9.33ZM37.921 3.52C38.6277 3.58667 39.1243 3.75 39.411 4.01C39.5843 4.06333 39.951 5.03333 40.511 6.92C40.931 7.55333 41.141 7.97333 41.141 8.18V8.34C41.061 8.54667 40.8777 8.65 40.591 8.65C40.2977 8.65 39.931 8.04667 39.491 6.84C38.991 7.68 38.441 8.1 37.841 8.1H37.691C36.431 7.88667 35.801 7.02333 35.801 5.51V5.43C35.9077 4.22333 36.4377 3.58333 37.391 3.51L37.921 3.52ZM36.751 5.13L36.741 5.81C36.7943 6.52333 37.1343 6.97333 37.761 7.16C37.8343 7.15333 37.8943 7.13667 37.941 7.11C38.6877 6.77667 38.9943 6.05333 38.861 4.94L38.791 4.64C38.2777 4.42667 37.8243 4.35667 37.431 4.43C37.1377 4.51667 36.911 4.75 36.751 5.13ZM43.5516 0.779999C43.9516 0.779999 44.1149 1.55667 44.0416 3.11C44.0949 4.26333 44.1216 5.66 44.1216 7.3C44.1216 7.61333 43.9582 7.82667 43.6316 7.94C43.2582 7.94 43.0716 7.75333 43.0716 7.38V4.72C43.0716 3.77333 43.0449 2.59333 42.9916 1.18C43.0649 0.913333 43.2516 0.779999 43.5516 0.779999ZM46.7633 0.779999C47.1633 0.779999 47.3266 1.55667 47.2533 3.11C47.3066 4.26333 47.3333 5.66 47.3333 7.3C47.3333 7.61333 47.1699 7.82667 46.8433 7.94C46.4699 7.94 46.2833 7.75333 46.2833 7.38V4.72C46.2833 3.77333 46.2566 2.59333 46.2033 1.18C46.2766 0.913333 46.4633 0.779999 46.7633 0.779999ZM49.825 1.28L50.265 1.25C50.5317 1.27 50.7117 1.39333 50.805 1.62V1.96C50.7183 2.24 50.525 2.38 50.225 2.38H49.935C49.5483 2.38 49.355 2.15333 49.355 1.7C49.455 1.42 49.6117 1.28 49.825 1.28ZM50.285 3.29C50.6183 3.40333 50.785 3.62667 50.785 3.96V5.81C50.785 6.05 50.8417 6.66667 50.955 7.66C50.8483 7.91333 50.735 8.05333 50.615 8.08H50.285C49.8917 8.08 49.695 6.82 49.695 4.3C49.695 3.62667 49.8917 3.29 50.285 3.29ZM53.6138 3.63L53.9538 3.62C54.1072 3.67333 54.1805 3.85 54.1738 4.15C54.5405 3.83 54.8605 3.66667 55.1338 3.66L55.3038 3.65C55.9705 3.63 56.4672 4.00667 56.7938 4.78L56.8438 4.87H56.8738C57.3272 4.11 57.8905 3.78667 58.5638 3.9C59.3972 3.98667 59.8572 4.57667 59.9438 5.67L60.0138 6.66C60.0405 7.46 59.9572 7.90333 59.7638 7.99H59.5938C59.2472 8.00333 59.0672 7.82333 59.0538 7.45C59.0405 7.07 59.0305 6.83333 59.0238 6.74C59.0572 6.01333 58.9838 5.46333 58.8038 5.09C58.5838 4.85667 58.3205 4.81667 58.0138 4.97C57.4338 5.30333 57.1738 6.01667 57.2338 7.11C57.2605 7.71667 57.0805 8.02667 56.6938 8.04H56.6138C56.3938 7.90667 56.2772 7.68667 56.2638 7.38C56.2505 7.16 56.2272 6.75667 56.1938 6.17C56.1938 5.39667 55.9105 4.9 55.3438 4.68C54.5705 4.76 54.2705 5.35333 54.4438 6.46C54.5505 7.48667 54.4972 8.00333 54.2838 8.01L53.9438 8.03C53.7505 8.03667 53.6138 7.86667 53.5338 7.52L53.4638 6.6C53.4572 6.36667 53.4305 6.00333 53.3838 5.51C53.3372 5.01 53.3038 4.47333 53.2838 3.9C53.3772 3.75333 53.4872 3.66333 53.6138 3.63ZM62.3813 1.28L62.8213 1.25C63.0879 1.27 63.2679 1.39333 63.3613 1.62V1.96C63.2746 2.24 63.0813 2.38 62.7812 2.38H62.4913C62.1046 2.38 61.9113 2.15333 61.9113 1.7C62.0113 1.42 62.1679 1.28 62.3813 1.28ZM62.8413 3.29C63.1746 3.40333 63.3413 3.62667 63.3413 3.96V5.81C63.3413 6.05 63.3979 6.66667 63.5113 7.66C63.4046 7.91333 63.2913 8.05333 63.1713 8.08H62.8413C62.4479 8.08 62.2513 6.82 62.2513 4.3C62.2513 3.62667 62.4479 3.29 62.8413 3.29Z" fill="#AA9887"/>
</svg>
