<svg width="154" height="33" viewBox="0 0 154 33" fill="none" xmlns="http://www.w3.org/2000/svg">
<g filter="url(#filter0_d_162_1813)">
<rect x="1" y="1" width="148" height="27" rx="10" fill="white"/>
<rect x="1.5" y="1.5" width="147" height="26" rx="9.5" stroke="#F2D8BF"/>
</g>
<path d="M19.44 9.05C19.7533 9.02333 19.9667 9.13667 20.08 9.39C20.1333 9.56333 20.12 9.73 20.04 9.89C19.96 10.0433 19.7 10.13 19.26 10.15C18.2733 10.17 17.4433 10.1667 16.77 10.14C16.6633 10.1133 16.5767 10.1433 16.51 10.23V11.46L17.58 11.49H19.71C20.0967 11.53 20.29 11.7267 20.29 12.08C20.17 12.42 19.9767 12.59 19.71 12.59L17.35 12.64C16.4967 12.66 15.95 12.5533 15.71 12.32C15.4767 12.0867 15.3767 11.7133 15.41 11.2V10.06C15.41 9.38 15.8333 9.04 16.68 9.04C17.6533 9.04 18.5733 9.04333 19.44 9.05ZM17.73 12.06C18.1167 12.12 18.3 12.3367 18.28 12.71V12.95V13.46C19.6067 13.4667 20.39 13.47 20.63 13.47C21.05 13.4633 21.3067 13.54 21.4 13.7C21.4933 13.8533 21.52 14.0167 21.48 14.19C21.4267 14.41 21.21 14.5467 20.83 14.6C18.8767 14.5933 17.55 14.59 16.85 14.59C16.15 14.59 15.5867 14.59 15.16 14.59H14.52C14.2533 14.5167 14.14 14.3133 14.18 13.98C14.1733 13.7067 14.3567 13.5467 14.73 13.5L17.21 13.49C17.21 13.1233 17.21 12.8167 17.21 12.57C17.2633 12.2233 17.4367 12.0533 17.73 12.06ZM18.07 15.05C19.4233 15.2567 20.1 15.8733 20.1 16.9C20.1267 18.28 19.6067 19.0533 18.54 19.22H17.81C16.7567 19.1533 16.1333 18.5033 15.94 17.27C16.0267 16.3367 16.33 15.7167 16.85 15.41C17.3767 15.1033 17.7833 14.9833 18.07 15.05ZM17.09 16.95V17.25C17.09 17.7833 17.4567 18.05 18.19 18.05C18.7233 18.05 19.02 17.8367 19.08 17.41C19.1267 17.1633 19.0967 16.91 18.99 16.65C18.8167 16.3167 18.55 16.15 18.19 16.15H17.89C17.4233 16.2433 17.1567 16.51 17.09 16.95ZM26.7031 10.87C27.1765 10.9167 27.4131 11.1 27.4131 11.42C27.4331 11.7533 27.1398 11.92 26.5331 11.92L24.6231 11.96V12.05C24.5431 13.6433 24.6231 14.4567 24.8631 14.49L27.0831 14.47C27.4298 14.5233 27.5865 14.6933 27.5531 14.98C27.4865 15.32 27.2198 15.51 26.7531 15.55H25.2131C24.1265 15.55 23.5831 15.0667 23.5831 14.1C23.4631 13.4267 23.4365 12.7133 23.5031 11.96V11.6C23.5031 11.1133 23.8065 10.87 24.4131 10.87H25.8631C26.0831 10.87 26.3631 10.87 26.7031 10.87ZM30.7831 9.76C31.1431 9.76 31.3231 10.8733 31.3231 13.1V16.34C31.3231 16.82 31.1431 17.06 30.7831 17.06C30.4765 17.06 30.3231 16.8933 30.3231 16.56V13.53H30.0931C29.9598 13.53 29.7365 13.5533 29.4231 13.6V16.13C29.4231 16.39 29.2965 16.58 29.0431 16.7H28.7331C28.6265 16.7 28.5298 16.5433 28.4431 16.23C28.4365 15.7833 28.4331 15.51 28.4331 15.41L28.3531 10.48C28.4531 10.26 28.5565 10.14 28.6631 10.12C28.7765 10.08 28.9031 10.08 29.0431 10.12C29.2498 10.18 29.3531 10.3933 29.3531 10.76V12.63C29.3665 12.6567 29.4165 12.67 29.5031 12.67C29.8298 12.6233 30.0798 12.6 30.2531 12.6L30.3231 12.59C30.3231 12.4167 30.2998 11.6167 30.2531 10.19C30.2731 9.90333 30.4498 9.76 30.7831 9.76ZM40.2054 10.03C40.5787 10.0367 40.8454 10.2133 41.0054 10.56V13.05C41.0054 13.51 40.6621 13.7733 39.9754 13.84L38.1754 13.82C37.5221 13.8333 37.1954 13.4967 37.1954 12.81C37.0887 11.8633 37.0054 11.27 36.9454 11.03C36.9521 10.65 37.0854 10.3667 37.3454 10.18C38.3387 9.98667 39.2921 9.93667 40.2054 10.03ZM37.9754 11.22C38.0487 12.28 38.1554 12.81 38.2954 12.81H40.0854V11.02C38.6787 10.9933 37.9754 11.06 37.9754 11.22ZM43.5954 9.84C43.9621 9.84 44.1454 10.1833 44.1454 10.87C44.2521 11.8033 44.3054 12.75 44.3054 13.71V14.35C44.1454 14.61 43.9621 14.74 43.7554 14.74C43.5354 14.6667 43.3754 14.5367 43.2754 14.35V12.71H42.1754C41.7754 12.71 41.5387 12.6033 41.4654 12.39V12C41.5521 11.7867 41.7354 11.68 42.0154 11.68H43.2054L43.1254 10.55C43.1921 10.0767 43.3487 9.84 43.5954 9.84ZM41.0954 14.74C41.4754 14.7333 41.6687 14.9467 41.6754 15.38C41.6221 15.5667 41.5254 15.7167 41.3854 15.83C41.2521 15.9433 41.1854 16.0267 41.1854 16.08C42.5654 16.8333 43.3987 17.3467 43.6854 17.62C43.7721 17.78 43.7721 17.94 43.6854 18.1C43.6854 18.1933 43.5921 18.29 43.4054 18.39C43.2454 18.4833 43.0854 18.4833 42.9254 18.39C41.5987 17.49 40.8021 17.0033 40.5354 16.93C39.7154 18.03 39.0987 18.58 38.6854 18.58C38.3921 18.4533 38.2321 18.3267 38.2054 18.2V18C38.2054 17.8067 39.0421 16.7533 40.7154 14.84C40.8287 14.7733 40.9554 14.74 41.0954 14.74ZM46.7385 15.61C46.3852 15.4567 46.2085 15.2467 46.2085 14.98C47.2285 13.5533 47.8552 12.22 48.0885 10.98L48.3585 10.8H48.7185C48.9518 10.88 49.0685 11.1167 49.0685 11.51C49.0685 11.77 48.9718 12.1533 48.7785 12.66C50.2918 13.9 51.0685 14.6133 51.1085 14.8C51.1085 15.22 50.9018 15.43 50.4885 15.43C50.3885 15.43 49.6685 14.86 48.3285 13.72C47.6418 14.98 47.1118 15.61 46.7385 15.61ZM52.0485 10H52.2085C52.5752 10 52.7585 10.2333 52.7585 10.7L52.8185 12.47L53.5985 12.5C54.1185 12.5 54.3785 12.71 54.3785 13.13C54.3052 13.39 54.1252 13.52 53.8385 13.52L52.8185 13.49C52.8318 14.9233 52.8385 15.8267 52.8385 16.2V16.43C52.8385 16.9033 52.6552 17.14 52.2885 17.14H52.1285C52.0218 17.1133 51.9185 16.9833 51.8185 16.75C51.7652 14.4633 51.7385 12.8133 51.7385 11.8V10.54C51.7385 10.26 51.8418 10.08 52.0485 10ZM63.6227 9.29C63.4893 9.57 63.3093 9.70333 63.0827 9.69C62.6293 9.65667 62.436 9.33 62.5027 8.71L62.5127 8.54C62.5527 7.97333 62.7693 7.70333 63.1627 7.73C63.556 7.75667 63.7093 8.27667 63.6227 9.29ZM61.3927 8.71H64.6827C65.0827 8.71 65.2827 8.91 65.2827 9.31V9.29C65.136 9.57667 64.9093 9.72 64.6027 9.72H61.4827C61.176 9.72 60.9493 9.57667 60.8027 9.29V9.05C60.896 8.82333 61.0927 8.71 61.3927 8.71ZM63.2527 9.83H63.3427C64.2693 9.91 64.8293 10.4 65.0227 11.3V11.68C64.9027 12.6133 64.3727 13.08 63.4327 13.08C62.0727 13.08 61.3927 12.59 61.3927 11.61V11.37C61.3927 10.4767 62.0127 9.96333 63.2527 9.83ZM62.6227 11.22C62.5293 11.4067 62.5293 11.5767 62.6227 11.73C62.716 11.9167 62.9227 12.02 63.2427 12.04L63.5827 11.99C63.716 11.9433 63.806 11.8233 63.8527 11.63L63.8627 11.46C63.856 11.1867 63.6893 10.99 63.3627 10.87H63.2027C62.9227 10.9033 62.7293 11.02 62.6227 11.22ZM63.2027 12.06C63.5893 12.12 63.7727 12.3367 63.7527 12.71V12.95V13.46C65.0793 13.4667 65.8627 13.47 66.1027 13.47C66.5227 13.4633 66.7793 13.54 66.8727 13.7C66.966 13.8533 66.9927 14.0167 66.9527 14.19C66.8993 14.41 66.6827 14.5467 66.3027 14.6C64.3493 14.5933 63.0227 14.59 62.3227 14.59C61.6227 14.59 61.0593 14.59 60.6327 14.59H59.9927C59.726 14.5167 59.6127 14.3133 59.6527 13.98C59.646 13.7067 59.8293 13.5467 60.2027 13.5L62.6827 13.49C62.6827 13.1233 62.6827 12.8167 62.6827 12.57C62.736 12.2233 62.9093 12.0533 63.2027 12.06ZM61.5427 15.26H65.0127C65.4527 15.26 65.6727 15.48 65.6727 15.92V17.44C65.6727 18.4533 65.3693 18.96 64.7627 18.96H63.9327C62.066 18.96 61.1327 18.7967 61.1327 18.47C61.026 18.2767 60.9693 17.89 60.9627 17.31V16.33C60.876 15.7633 61.0693 15.4067 61.5427 15.26ZM62.0627 16.48V17.56C62.1027 17.7667 62.2093 17.8733 62.3827 17.88L62.7827 17.89C63.1027 17.89 63.616 17.91 64.3227 17.95C64.3827 17.9567 64.4293 17.96 64.4627 17.96C64.5093 17.9 64.5393 17.8333 64.5527 17.76C64.6393 17.2267 64.6793 16.7733 64.6727 16.4C64.666 16.3333 64.6127 16.2833 64.5127 16.25H62.4527C62.2927 16.2233 62.1627 16.3 62.0627 16.48ZM69.3058 10.81C70.2658 10.8633 71.0991 10.89 71.8058 10.89C72.2258 10.89 72.7991 10.8633 73.5258 10.81C73.7924 10.8833 73.9258 11.0667 73.9258 11.36V11.52C73.9258 11.7733 73.5591 11.9033 72.8258 11.91V14.28C72.8391 14.3867 72.8891 14.44 72.9758 14.44H73.5458C73.7391 14.54 73.8724 14.6967 73.9458 14.91C73.9458 15.2233 73.7358 15.4067 73.3158 15.46H69.5858C69.1324 15.46 68.9058 15.2767 68.9058 14.91C68.9058 14.6167 69.2091 14.4333 69.8158 14.36V11.83H69.4658C69.0458 11.79 68.8358 11.6067 68.8358 11.28C68.7824 11.0467 68.9391 10.89 69.3058 10.81ZM70.8358 11.91V14.44H71.6458C71.7524 14.44 71.8058 14.3867 71.8058 14.28V12.07C71.8058 11.9633 71.7524 11.91 71.6458 11.91H70.8358ZM75.2158 10.14H75.3658C75.7058 10.22 75.8424 11.5567 75.7758 14.15V15.98C75.7424 16.4733 75.5958 16.72 75.3358 16.72C75.0158 16.72 74.8191 16.5 74.7458 16.06C74.7991 15.7867 74.8258 15.52 74.8258 15.26V13.61H74.2358C73.7958 13.61 73.5758 13.44 73.5758 13.1C73.5758 12.6933 73.7824 12.49 74.1958 12.49L74.7458 12.48C74.7458 12.1867 74.7324 11.5567 74.7058 10.59C74.7058 10.29 74.8758 10.14 75.2158 10.14ZM76.6658 9.91H76.8158C77.1891 9.91 77.3424 12.13 77.2758 16.57C77.2758 16.7833 77.1691 16.9433 76.9558 17.05H76.7958C76.4291 17.05 76.2458 16.8367 76.2458 16.41C76.2458 13.23 76.1991 11.2233 76.1058 10.39C76.1058 10.07 76.2924 9.91 76.6658 9.91ZM81.4929 10.9C82.8129 11.1667 83.4896 11.7133 83.5229 12.54V13.52C83.5229 14.6 82.8896 15.2167 81.6229 15.37C80.0496 15.37 79.2629 14.8167 79.2629 13.71V13.03C79.4229 11.6033 80.1662 10.8933 81.4929 10.9ZM80.2529 13.67C80.3596 13.9567 80.6629 14.1333 81.1629 14.2L81.8229 14.21C82.3629 14.0633 82.6329 13.7033 82.6329 13.13C82.6462 12.3967 82.2496 12.0067 81.4429 11.96H81.2429C80.9029 11.96 80.6529 12.0967 80.4929 12.37C80.3329 12.6367 80.2396 12.99 80.2129 13.43L80.2529 13.67ZM85.4429 9.97C85.6296 9.92333 85.7929 9.93333 85.9329 10C86.3529 10 86.4729 12.1533 86.2929 16.46C86.2929 16.6733 86.1629 16.8333 85.9029 16.94H85.7429C85.3762 16.94 85.1929 16.7267 85.1929 16.3C85.2596 13.12 85.2462 11.18 85.1529 10.48C85.1529 10.16 85.2496 9.99 85.4429 9.97ZM88.9491 11.04H90.9391C91.3591 11.04 91.5824 11.29 91.6091 11.79C91.6091 11.97 91.4124 12.4933 91.0191 13.36C92.1257 14.0467 92.7624 14.52 92.9291 14.78V15.11C92.9291 15.1967 92.8191 15.3067 92.5991 15.44H92.4391C92.3057 15.44 91.6691 15.0533 90.5291 14.28H90.4391C90.0324 15.1067 89.6457 15.52 89.2791 15.52C89.0257 15.4133 88.8857 15.3033 88.8591 15.19V15.03C88.8591 14.89 89.3324 14.0567 90.2791 12.53L90.4391 12.12H89.1091C88.6824 12.12 88.4057 11.98 88.2791 11.7V11.45C88.4257 11.1767 88.6491 11.04 88.9491 11.04ZM94.3791 9.97C94.5657 9.92333 94.7291 9.93333 94.8691 10C95.2891 10 95.4091 12.1533 95.2291 16.46C95.2291 16.6733 95.0991 16.8333 94.8391 16.94H94.6791C94.3124 16.94 94.1291 16.7267 94.1291 16.3C94.1957 13.12 94.1824 11.18 94.0891 10.48C94.0891 10.16 94.1857 9.99 94.3791 9.97ZM100.979 10.99H101.579C103.446 10.99 104.379 11.19 104.379 11.59C104.439 11.6833 104.469 11.8233 104.469 12.01C104.483 13.2633 103.859 14.5967 102.599 16.01C102.439 16.0367 102.296 16.0367 102.169 16.01C101.849 15.91 101.716 15.66 101.769 15.26C102.776 13.94 103.279 12.9133 103.279 12.18C101.519 12.18 100.639 11.9833 100.639 11.59V11.42C100.679 11.1667 100.793 11.0233 100.979 10.99ZM106.709 10H106.869C107.236 10 107.419 10.2333 107.419 10.7L107.479 12.47L108.259 12.5C108.779 12.5 109.039 12.71 109.039 13.13C108.966 13.39 108.786 13.52 108.499 13.52L107.479 13.49C107.493 14.9233 107.499 15.8267 107.499 16.2V16.43C107.499 16.9033 107.316 17.14 106.949 17.14H106.789C106.683 17.1133 106.579 16.9833 106.479 16.75C106.426 14.4633 106.399 12.8133 106.399 11.8V10.54C106.399 10.26 106.503 10.08 106.709 10ZM110.91 10.99H111.51C113.376 10.99 114.31 11.19 114.31 11.59C114.37 11.6833 114.4 11.8233 114.4 12.01C114.413 13.2633 113.79 14.5967 112.53 16.01C112.37 16.0367 112.226 16.0367 112.1 16.01C111.78 15.91 111.646 15.66 111.7 15.26C112.706 13.94 113.21 12.9133 113.21 12.18C111.45 12.18 110.57 11.9833 110.57 11.59V11.42C110.61 11.1667 110.723 11.0233 110.91 10.99ZM116.86 9.97C117.046 9.92333 117.21 9.93333 117.35 10C117.77 10 117.89 12.1533 117.71 16.46C117.71 16.6733 117.58 16.8333 117.32 16.94H117.16C116.793 16.94 116.61 16.7267 116.61 16.3C116.676 13.12 116.663 11.18 116.57 10.48C116.57 10.16 116.666 9.99 116.86 9.97Z" fill="#603900"/>
<path d="M128 13.5C127.724 13.5 127.5 13.7239 127.5 14C127.5 14.2761 127.724 14.5 128 14.5L128 13.5ZM136.354 14.3536C136.549 14.1583 136.549 13.8417 136.354 13.6464L133.172 10.4645C132.976 10.2692 132.66 10.2692 132.464 10.4645C132.269 10.6597 132.269 10.9763 132.464 11.1716L135.293 14L132.464 16.8284C132.269 17.0237 132.269 17.3403 132.464 17.5355C132.66 17.7308 132.976 17.7308 133.172 17.5355L136.354 14.3536ZM128 14.5L136 14.5L136 13.5L128 13.5L128 14.5Z" fill="#603900"/>
<defs>
<filter id="filter0_d_162_1813" x="0" y="0" width="154" height="33" filterUnits="userSpaceOnUse" color-interpolation-filters="sRGB">
<feFlood flood-opacity="0" result="BackgroundImageFix"/>
<feColorMatrix in="SourceAlpha" type="matrix" values="0 0 0 0 0 0 0 0 0 0 0 0 0 0 0 0 0 0 127 0" result="hardAlpha"/>
<feOffset dx="2" dy="2"/>
<feGaussianBlur stdDeviation="1.5"/>
<feComposite in2="hardAlpha" operator="out"/>
<feColorMatrix type="matrix" values="0 0 0 0 1 0 0 0 0 0.949 0 0 0 0 0.85 0 0 0 1 0"/>
<feBlend mode="normal" in2="BackgroundImageFix" result="effect1_dropShadow_162_1813"/>
<feBlend mode="normal" in="SourceGraphic" in2="effect1_dropShadow_162_1813" result="shape"/>
</filter>
</defs>
</svg>
