<svg width="127" height="11" viewBox="0 0 127 11" fill="none" xmlns="http://www.w3.org/2000/svg">
<path d="M4.71 0.409999C5.94333 0.409999 6.97 0.943333 7.79 2.01C8.25 2.67 8.47333 3.47 8.46 4.41C8.28 5.63 7.7 6.34667 6.72 6.56L6.2 6.57C5.78 6.48333 5.40333 6.32 5.07 6.08C4.92333 6.24 4.56 6.36 3.98 6.44C3.36667 6.33333 2.93667 6.16 2.69 5.92C2.44333 5.68 2.30333 5.34667 2.27 4.92V4.55C2.26333 3.67 2.64 3.04 3.4 2.66C3.57333 2.56667 3.76667 2.52 3.98 2.52H4.63C5.09 2.52 5.48 2.73667 5.8 3.17C6.04 3.17 6.16 3.34 6.16 3.68C6.16 3.97333 6.06333 4.41 5.87 4.99V5.35C6.28333 5.76333 6.69 5.85333 7.09 5.62C7.43667 5.44 7.64667 5 7.72 4.3L7.61 3.43C7.23 2.46333 6.71 1.85 6.05 1.59C5.56333 1.37 5.05333 1.24667 4.52 1.22C2.94667 1.23333 1.96333 1.99333 1.57 3.5C1.43 3.96667 1.4 4.54 1.48 5.22C1.65333 6.03333 2.03 6.66 2.61 7.1C3.35667 7.53333 4.08 7.75 4.78 7.75C5.30667 7.75 5.9 7.48333 6.56 6.95L6.7 6.88C7.08667 6.91333 7.28 7.10667 7.28 7.46C6.68667 8.25333 5.77333 8.66333 4.54 8.69C3.18 8.60333 2.1 8.10333 1.3 7.19C0.793333 6.38333 0.536667 5.47667 0.53 4.47C0.55 2.97 1.01 1.91667 1.91 1.31C2.65 0.709999 3.58333 0.409999 4.71 0.409999ZM3.25 4.55V4.85C3.28333 5.13667 3.43333 5.32333 3.7 5.41H4.16C4.73333 5.33667 4.96333 4.76 4.85 3.68C4.76333 3.63333 4.66667 3.57333 4.56 3.5H4.05C3.59667 3.57333 3.33 3.92333 3.25 4.55ZM11.0965 0.779999C11.4965 0.779999 11.6598 1.55667 11.5865 3.11C11.6398 4.26333 11.6665 5.66 11.6665 7.3C11.6665 7.61333 11.5032 7.82667 11.1765 7.94C10.8032 7.94 10.6165 7.75333 10.6165 7.38V4.72C10.6165 3.77333 10.5898 2.59333 10.5365 1.18C10.6098 0.913333 10.7965 0.779999 11.0965 0.779999ZM14.1582 1.28L14.5982 1.25C14.8649 1.27 15.0449 1.39333 15.1382 1.62V1.96C15.0515 2.24 14.8582 2.38 14.5582 2.38H14.2682C13.8815 2.38 13.6882 2.15333 13.6882 1.7C13.7882 1.42 13.9449 1.28 14.1582 1.28ZM14.6182 3.29C14.9515 3.40333 15.1182 3.62667 15.1182 3.96V5.81C15.1182 6.05 15.1749 6.66667 15.2882 7.66C15.1815 7.91333 15.0682 8.05333 14.9482 8.08H14.6182C14.2249 8.08 14.0282 6.82 14.0282 4.3C14.0282 3.62667 14.2249 3.29 14.6182 3.29ZM18.247 1.22H18.317C18.657 1.22 18.827 1.39333 18.827 1.74V4.87C20.167 3.81 21.0204 3.28 21.387 3.28C21.6804 3.39333 21.8104 3.54667 21.777 3.74C21.717 3.90667 21.247 4.29 20.367 4.89C19.927 5.23667 19.707 5.42333 19.707 5.45C20.9137 6.33667 21.6504 6.96 21.917 7.32V7.62C21.837 7.81333 21.667 7.91 21.407 7.91C21.327 7.91 20.9604 7.64333 20.307 7.11C20.167 7.02333 19.697 6.64 18.897 5.96C18.8504 6.05333 18.827 6.12667 18.827 6.18C18.827 6.41333 18.8504 6.87333 18.897 7.56C18.797 7.85333 18.7004 8 18.607 8H18.427H18.247C18.1404 7.98 18.0404 7.85667 17.947 7.63C17.9004 5.53667 17.877 3.86333 17.877 2.61V1.95C17.877 1.57667 18.0004 1.33333 18.247 1.22ZM25.8879 3.17C26.1746 3.13 26.4346 3.13 26.6679 3.17C27.7612 3.45 28.3079 3.92333 28.3079 4.59C28.3079 5.39667 27.7879 5.8 26.7479 5.8H26.4379C25.7646 5.8 25.2846 5.72667 24.9979 5.58C24.9246 5.79333 24.9012 6 24.9279 6.2C25.0612 6.75333 25.5879 7.08667 26.5079 7.2C26.7546 7.2 26.9912 7.18333 27.2179 7.15H27.2879C27.5746 7.15 27.7846 7.27333 27.9179 7.52C27.9579 7.62667 27.9579 7.72667 27.9179 7.82C27.8312 8.03333 27.5812 8.16333 27.1679 8.21C26.9012 8.22333 26.6579 8.22 26.4379 8.2C24.7712 8.00667 23.9379 7.28 23.9379 6.02V5.87C23.9379 4.35 24.5879 3.45 25.8879 3.17ZM25.2979 4.65C25.3046 4.76333 25.5679 4.83 26.0879 4.85H26.9179C27.1646 4.83 27.2879 4.74333 27.2879 4.59C27.1679 4.24333 26.8746 4.05667 26.4079 4.03C26.3012 4.02333 26.1812 4.03667 26.0479 4.07C25.6879 4.16333 25.4379 4.35667 25.2979 4.65ZM30.6816 0.779999C31.0816 0.779999 31.245 1.55667 31.1716 3.11C31.225 4.26333 31.2516 5.66 31.2516 7.3C31.2516 7.61333 31.0883 7.82667 30.7616 7.94C30.3883 7.94 30.2016 7.75333 30.2016 7.38V4.72C30.2016 3.77333 30.175 2.59333 30.1216 1.18C30.195 0.913333 30.3816 0.779999 30.6816 0.779999ZM33.7434 1.28L34.1834 1.25C34.45 1.27 34.63 1.39333 34.7234 1.62V1.96C34.6367 2.24 34.4434 2.38 34.1434 2.38H33.8534C33.4667 2.38 33.2734 2.15333 33.2734 1.7C33.3734 1.42 33.53 1.28 33.7434 1.28ZM34.2034 3.29C34.5367 3.40333 34.7034 3.62667 34.7034 3.96V5.81C34.7034 6.05 34.76 6.66667 34.8734 7.66C34.7667 7.91333 34.6534 8.05333 34.5334 8.08H34.2034C33.81 8.08 33.6134 6.82 33.6134 4.3C33.6134 3.62667 33.81 3.29 34.2034 3.29ZM39.7922 3.59C40.5122 3.66333 40.9989 4.09667 41.2522 4.89C41.3389 5.17667 41.3822 5.46 41.3822 5.74C41.2289 7.17333 40.6789 7.96667 39.7322 8.12H38.8822C37.5622 7.94667 36.9022 7.37333 36.9022 6.4V5.81C37.0755 4.35667 37.6689 3.61 38.6822 3.57C39.0889 3.54333 39.4589 3.55 39.7922 3.59ZM37.8822 6.12C37.8822 6.76667 38.3922 7.09 39.4122 7.09H39.4722C39.9989 7.01 40.3022 6.60333 40.3822 5.87V5.43C40.3155 5.11 40.1555 4.84667 39.9022 4.64L39.5322 4.54C39.2922 4.52 39.0189 4.52333 38.7122 4.55C38.3522 4.65 38.0955 4.94333 37.9422 5.43C37.9022 5.71667 37.8822 5.94667 37.8822 6.12ZM44.2001 3.7C44.3667 3.70667 44.5001 3.94333 44.6001 4.41C45.0601 4.10333 45.5567 3.94667 46.0901 3.94L46.5001 3.96C47.6267 4.09333 48.0734 5.29 47.8401 7.55C47.8134 7.87667 47.6101 8.02667 47.2301 8C47.0034 7.99333 46.8934 7.79667 46.9001 7.41C46.8867 6.83667 46.8767 6.28 46.8701 5.74C46.7967 5.20667 46.5734 4.94333 46.2001 4.95C45.4334 4.91 45.0001 5.18333 44.9001 5.77C44.8467 5.93 44.7901 6.56333 44.7301 7.67C44.6834 7.81 44.5967 7.89667 44.4701 7.93C44.3834 7.97 44.2967 7.98 44.2101 7.96C44.0567 8 43.9167 7.96333 43.7901 7.85C43.6967 7.65 43.7001 6.72667 43.8001 5.08C43.6934 4.63333 43.6401 4.26667 43.6401 3.98C43.7801 3.78 43.9667 3.68667 44.2001 3.7ZM50.1579 9.33H50.5379H54.0179C54.3379 9.37667 54.4979 9.52667 54.4979 9.78C54.4646 10.0267 54.3479 10.18 54.1479 10.24L53.5879 10.23H50.3779C49.9846 10.23 49.7879 10.0567 49.7879 9.71C49.7812 9.51 49.9046 9.38333 50.1579 9.33ZM59.7474 0.49C59.8741 0.49 59.9874 0.616666 60.0874 0.869999C60.1074 1.41667 60.1174 1.81667 60.1174 2.07V4.76C60.1441 5.40667 60.1808 6.09667 60.2274 6.83C60.2208 7.05 60.2108 7.20667 60.1974 7.3C59.8241 7.9 59.2008 8.2 58.3274 8.2C57.0741 7.93333 56.4541 7.22 56.4674 6.06L56.4574 5.36C56.5308 4.47333 57.1774 3.95 58.3974 3.79C58.6708 3.73667 58.8974 3.71 59.0774 3.71L59.2274 3.64V1.39C59.2274 1.27667 59.2241 1.14667 59.2174 1C59.2241 0.66 59.4008 0.49 59.7474 0.49ZM57.3774 5.27C57.2641 5.57 57.2474 5.91667 57.3274 6.31C57.4474 6.89 57.7808 7.19667 58.3274 7.23H58.4774C58.5774 7.23 58.8374 7.16 59.2574 7.02C59.3308 6.96667 59.3608 6.89 59.3474 6.79L59.2774 4.99C59.1641 4.78333 58.9708 4.68 58.6974 4.68H58.6274C57.9608 4.67333 57.5441 4.87 57.3774 5.27ZM65.4418 3.59C66.1618 3.66333 66.6485 4.09667 66.9018 4.89C66.9885 5.17667 67.0318 5.46 67.0318 5.74C66.8785 7.17333 66.3285 7.96667 65.3818 8.12H64.5318C63.2118 7.94667 62.5518 7.37333 62.5518 6.4V5.81C62.7251 4.35667 63.3185 3.61 64.3318 3.57C64.7385 3.54333 65.1085 3.55 65.4418 3.59ZM63.5318 6.12C63.5318 6.76667 64.0418 7.09 65.0618 7.09H65.1218C65.6485 7.01 65.9518 6.60333 66.0318 5.87V5.43C65.9651 5.11 65.8051 4.84667 65.5518 4.64L65.1818 4.54C64.9418 4.52 64.6685 4.52333 64.3618 4.55C64.0018 4.65 63.7451 4.94333 63.5918 5.43C63.5518 5.71667 63.5318 5.94667 63.5318 6.12ZM69.8497 3.7C70.0164 3.70667 70.1497 3.94333 70.2497 4.41C70.7097 4.10333 71.2064 3.94667 71.7397 3.94L72.1497 3.96C73.2764 4.09333 73.723 5.29 73.4897 7.55C73.463 7.87667 73.2597 8.02667 72.8797 8C72.653 7.99333 72.543 7.79667 72.5497 7.41C72.5364 6.83667 72.5264 6.28 72.5197 5.74C72.4464 5.20667 72.223 4.94333 71.8497 4.95C71.083 4.91 70.6497 5.18333 70.5497 5.77C70.4964 5.93 70.4397 6.56333 70.3797 7.67C70.333 7.81 70.2464 7.89667 70.1197 7.93C70.033 7.97 69.9464 7.98 69.8597 7.96C69.7064 8 69.5664 7.96333 69.4397 7.85C69.3464 7.65 69.3497 6.72667 69.4497 5.08C69.343 4.63333 69.2897 4.26667 69.2897 3.98C69.4297 3.78 69.6164 3.68667 69.8497 3.7ZM77.0575 2.51C78.3042 2.71667 78.9275 3.05 78.9275 3.51V3.64C78.9275 3.82667 78.9042 4.07333 78.8575 4.38C79.0842 5.65333 79.1875 6.35 79.1675 6.47L79.7575 6.46L80.1275 6.45C80.3942 6.55 80.5275 6.70333 80.5275 6.91C80.5275 7.15667 80.4175 7.29 80.1975 7.31H79.2575V7.91C79.2575 9.05667 78.7242 9.77 77.6575 10.05C77.3575 10.0967 77.1142 10.12 76.9275 10.12H76.5275C75.9208 10.12 75.5642 9.56333 75.4575 8.45C75.7375 7.20333 76.3608 6.58 77.3275 6.58C77.9942 6.53333 78.3275 6.49 78.3275 6.45C78.3275 5.87 78.2608 5.58 78.1275 5.58C78.1275 5.74667 77.8608 5.85667 77.3275 5.91C76.4608 5.91 75.8808 5.46667 75.5875 4.58V4.04C75.8142 3.02 76.3042 2.51 77.0575 2.51ZM76.4875 4.28V4.34C76.4875 4.64 76.7108 4.84333 77.1575 4.95H77.4275C77.5675 4.95 77.6975 4.72667 77.8175 4.28V3.78C77.5375 3.63333 77.3175 3.56 77.1575 3.56H77.0475C76.6742 3.61333 76.4875 3.85333 76.4875 4.28ZM76.4375 8.53V8.66C76.4375 9 76.5442 9.21667 76.7575 9.31C77.8842 9.31 78.4475 8.94333 78.4475 8.21V7.36C77.6808 7.36 77.1308 7.47667 76.7975 7.71C76.6575 7.81 76.5575 7.93333 76.4975 8.08L76.4375 8.53ZM83.736 2.51C84.9827 2.71667 85.606 3.05 85.606 3.51V3.64C85.606 3.82667 85.5827 4.07333 85.536 4.38C85.7627 5.65333 85.866 6.35 85.846 6.47L86.436 6.46L86.806 6.45C87.0727 6.55 87.206 6.70333 87.206 6.91C87.206 7.15667 87.096 7.29 86.876 7.31H85.936V7.91C85.936 9.05667 85.4027 9.77 84.336 10.05C84.036 10.0967 83.7927 10.12 83.606 10.12H83.206C82.5994 10.12 82.2427 9.56333 82.136 8.45C82.416 7.20333 83.0394 6.58 84.006 6.58C84.6727 6.53333 85.006 6.49 85.006 6.45C85.006 5.87 84.9394 5.58 84.806 5.58C84.806 5.74667 84.5394 5.85667 84.006 5.91C83.1394 5.91 82.5594 5.46667 82.266 4.58V4.04C82.4927 3.02 82.9827 2.51 83.736 2.51ZM83.166 4.28V4.34C83.166 4.64 83.3894 4.84333 83.836 4.95H84.106C84.246 4.95 84.376 4.72667 84.496 4.28V3.78C84.216 3.63333 83.996 3.56 83.836 3.56H83.726C83.3527 3.61333 83.166 3.85333 83.166 4.28ZM83.116 8.53V8.66C83.116 9 83.2227 9.21667 83.436 9.31C84.5627 9.31 85.126 8.94333 85.126 8.21V7.36C84.3594 7.36 83.8094 7.47667 83.476 7.71C83.336 7.81 83.236 7.93333 83.176 8.08L83.116 8.53ZM92.5545 3.43C92.8812 3.47 93.0579 3.65667 93.0845 3.99C93.0445 4.66333 93.0179 5.20333 93.0045 5.61L93.0545 7.57C93.0145 7.90333 92.8612 8.06667 92.5945 8.06C92.3412 7.95333 92.2245 7.72667 92.2445 7.38C91.6845 7.87333 91.1312 8.11 90.5845 8.09C89.5645 8.06333 89.0412 7.26 89.0145 5.68L89.0645 4.03C89.2045 3.81 89.3679 3.70667 89.5545 3.72C89.8145 3.74 89.9745 3.85 90.0345 4.05L90.0145 4.63C89.9145 5.96333 89.9979 6.74333 90.2645 6.97C90.4512 7.07 90.6212 7.10667 90.7745 7.08C91.7812 6.98 92.2312 6.16333 92.1245 4.63L92.1345 4.05C92.1145 3.66333 92.2545 3.45667 92.5545 3.43ZM95.9466 1.22H96.0166C96.3566 1.22 96.5266 1.39333 96.5266 1.74V4.87C97.8666 3.81 98.72 3.28 99.0866 3.28C99.38 3.39333 99.51 3.54667 99.4766 3.74C99.4166 3.90667 98.9466 4.29 98.0666 4.89C97.6266 5.23667 97.4066 5.42333 97.4066 5.45C98.6133 6.33667 99.35 6.96 99.6166 7.32V7.62C99.5366 7.81333 99.3666 7.91 99.1066 7.91C99.0266 7.91 98.66 7.64333 98.0066 7.11C97.8666 7.02333 97.3966 6.64 96.5966 5.96C96.55 6.05333 96.5266 6.12667 96.5266 6.18C96.5266 6.41333 96.55 6.87333 96.5966 7.56C96.4966 7.85333 96.4 8 96.3066 8H96.1266H95.9466C95.84 7.98 95.74 7.85667 95.6466 7.63C95.6 5.53667 95.5766 3.86333 95.5766 2.61V1.95C95.5766 1.57667 95.7 1.33333 95.9466 1.22Z" fill="#AA9887"/>
</svg>
