<svg width="127" height="11" viewBox="0 0 127 11" fill="none" xmlns="http://www.w3.org/2000/svg">
<path d="M4.71 0.409999C5.94333 0.409999 6.97 0.943333 7.79 2.01C8.25 2.67 8.47333 3.47 8.46 4.41C8.28 5.63 7.7 6.34667 6.72 6.56L6.2 6.57C5.78 6.48333 5.40333 6.32 5.07 6.08C4.92333 6.24 4.56 6.36 3.98 6.44C3.36667 6.33333 2.93667 6.16 2.69 5.92C2.44333 5.68 2.30333 5.34667 2.27 4.92V4.55C2.26333 3.67 2.64 3.04 3.4 2.66C3.57333 2.56667 3.76667 2.52 3.98 2.52H4.63C5.09 2.52 5.48 2.73667 5.8 3.17C6.04 3.17 6.16 3.34 6.16 3.68C6.16 3.97333 6.06333 4.41 5.87 4.99V5.35C6.28333 5.76333 6.69 5.85333 7.09 5.62C7.43667 5.44 7.64667 5 7.72 4.3L7.61 3.43C7.23 2.46333 6.71 1.85 6.05 1.59C5.56333 1.37 5.05333 1.24667 4.52 1.22C2.94667 1.23333 1.96333 1.99333 1.57 3.5C1.43 3.96667 1.4 4.54 1.48 5.22C1.65333 6.03333 2.03 6.66 2.61 7.1C3.35667 7.53333 4.08 7.75 4.78 7.75C5.30667 7.75 5.9 7.48333 6.56 6.95L6.7 6.88C7.08667 6.91333 7.28 7.10667 7.28 7.46C6.68667 8.25333 5.77333 8.66333 4.54 8.69C3.18 8.60333 2.1 8.10333 1.3 7.19C0.793333 6.38333 0.536667 5.47667 0.53 4.47C0.55 2.97 1.01 1.91667 1.91 1.31C2.65 0.709999 3.58333 0.409999 4.71 0.409999ZM3.25 4.55V4.85C3.28333 5.13667 3.43333 5.32333 3.7 5.41H4.16C4.73333 5.33667 4.96333 4.76 4.85 3.68C4.76333 3.63333 4.66667 3.57333 4.56 3.5H4.05C3.59667 3.57333 3.33 3.92333 3.25 4.55ZM13.9865 0.49C14.1132 0.49 14.2265 0.616666 14.3265 0.869999C14.3465 1.41667 14.3565 1.81667 14.3565 2.07V4.76C14.3832 5.40667 14.4198 6.09667 14.4665 6.83C14.4598 7.05 14.4498 7.20667 14.4365 7.3C14.0632 7.9 13.4398 8.2 12.5665 8.2C11.3132 7.93333 10.6932 7.22 10.7065 6.06L10.6965 5.36C10.7698 4.47333 11.4165 3.95 12.6365 3.79C12.9098 3.73667 13.1365 3.71 13.3165 3.71L13.4665 3.64V1.39C13.4665 1.27667 13.4632 1.14667 13.4565 1C13.4632 0.66 13.6398 0.49 13.9865 0.49ZM11.6165 5.27C11.5032 5.57 11.4865 5.91667 11.5665 6.31C11.6865 6.89 12.0198 7.19667 12.5665 7.23H12.7165C12.8165 7.23 13.0765 7.16 13.4965 7.02C13.5698 6.96667 13.5998 6.89 13.5865 6.79L13.5165 4.99C13.4032 4.78333 13.2098 4.68 12.9365 4.68H12.8665C12.1998 4.67333 11.7832 4.87 11.6165 5.27ZM19.6809 3.59C20.4009 3.66333 20.8875 4.09667 21.1409 4.89C21.2275 5.17667 21.2709 5.46 21.2709 5.74C21.1175 7.17333 20.5675 7.96667 19.6209 8.12H18.7709C17.4509 7.94667 16.7909 7.37333 16.7909 6.4V5.81C16.9642 4.35667 17.5575 3.61 18.5709 3.57C18.9775 3.54333 19.3475 3.55 19.6809 3.59ZM17.7709 6.12C17.7709 6.76667 18.2809 7.09 19.3009 7.09H19.3609C19.8875 7.01 20.1909 6.60333 20.2709 5.87V5.43C20.2042 5.11 20.0442 4.84667 19.7909 4.64L19.4209 4.54C19.1809 4.52 18.9075 4.52333 18.6009 4.55C18.2409 4.65 17.9842 4.94333 17.8309 5.43C17.7909 5.71667 17.7709 5.94667 17.7709 6.12ZM24.0888 3.7C24.2554 3.70667 24.3888 3.94333 24.4888 4.41C24.9488 4.10333 25.4454 3.94667 25.9788 3.94L26.3888 3.96C27.5154 4.09333 27.9621 5.29 27.7288 7.55C27.7021 7.87667 27.4988 8.02667 27.1188 8C26.8921 7.99333 26.7821 7.79667 26.7888 7.41C26.7754 6.83667 26.7654 6.28 26.7588 5.74C26.6854 5.20667 26.4621 4.94333 26.0888 4.95C25.3221 4.91 24.8888 5.18333 24.7888 5.77C24.7354 5.93 24.6788 6.56333 24.6188 7.67C24.5721 7.81 24.4854 7.89667 24.3588 7.93C24.2721 7.97 24.1854 7.98 24.0988 7.96C23.9454 8 23.8054 7.96333 23.6788 7.85C23.5854 7.65 23.5888 6.72667 23.6888 5.08C23.5821 4.63333 23.5288 4.26667 23.5288 3.98C23.6688 3.78 23.8554 3.68667 24.0888 3.7ZM31.2966 2.51C32.5432 2.71667 33.1666 3.05 33.1666 3.51V3.64C33.1666 3.82667 33.1432 4.07333 33.0966 4.38C33.3232 5.65333 33.4266 6.35 33.4066 6.47L33.9966 6.46L34.3666 6.45C34.6332 6.55 34.7666 6.70333 34.7666 6.91C34.7666 7.15667 34.6566 7.29 34.4366 7.31H33.4966V7.91C33.4966 9.05667 32.9632 9.77 31.8966 10.05C31.5966 10.0967 31.3532 10.12 31.1666 10.12H30.7666C30.1599 10.12 29.8032 9.56333 29.6966 8.45C29.9766 7.20333 30.5999 6.58 31.5666 6.58C32.2332 6.53333 32.5666 6.49 32.5666 6.45C32.5666 5.87 32.4999 5.58 32.3666 5.58C32.3666 5.74667 32.0999 5.85667 31.5666 5.91C30.6999 5.91 30.1199 5.46667 29.8266 4.58V4.04C30.0532 3.02 30.5432 2.51 31.2966 2.51ZM30.7266 4.28V4.34C30.7266 4.64 30.9499 4.84333 31.3966 4.95H31.6666C31.8066 4.95 31.9366 4.72667 32.0566 4.28V3.78C31.7766 3.63333 31.5566 3.56 31.3966 3.56H31.2866C30.9132 3.61333 30.7266 3.85333 30.7266 4.28ZM30.6766 8.53V8.66C30.6766 9 30.7832 9.21667 30.9966 9.31C32.1232 9.31 32.6866 8.94333 32.6866 8.21V7.36C31.9199 7.36 31.3699 7.47667 31.0366 7.71C30.8966 7.81 30.7966 7.93333 30.7366 8.08L30.6766 8.53ZM37.3551 0.92C37.6551 1.01333 37.8051 1.28 37.8051 1.72V4.66C38.0584 4.51333 38.3117 4.42667 38.5651 4.4C38.7051 4.36667 38.8651 4.36333 39.0451 4.39C40.1451 4.59 40.5951 5.70333 40.3951 7.73C40.3951 7.92333 40.2951 8.07 40.0951 8.17H39.7951C39.5751 8.12333 39.4784 7.41667 39.5051 6.05C39.3984 5.56333 39.1751 5.32 38.8351 5.32H38.6951C38.1684 5.25333 37.8617 5.59667 37.7751 6.35L37.8151 7.6C37.8417 7.95333 37.6451 8.12333 37.2251 8.11C36.7784 7.95 36.6484 6.48333 36.8351 3.71V1.58C36.8351 1.14 37.0084 0.92 37.3551 0.92ZM44.5116 3.52C45.2183 3.58667 45.715 3.75 46.0016 4.01C46.175 4.06333 46.5416 5.03333 47.1016 6.92C47.5216 7.55333 47.7316 7.97333 47.7316 8.18V8.34C47.6516 8.54667 47.4683 8.65 47.1816 8.65C46.8883 8.65 46.5216 8.04667 46.0816 6.84C45.5816 7.68 45.0316 8.1 44.4316 8.1H44.2816C43.0216 7.88667 42.3916 7.02333 42.3916 5.51V5.43C42.4983 4.22333 43.0283 3.58333 43.9816 3.51L44.5116 3.52ZM43.3416 5.13L43.3316 5.81C43.385 6.52333 43.725 6.97333 44.3516 7.16C44.425 7.15333 44.485 7.13667 44.5316 7.11C45.2783 6.77667 45.585 6.05333 45.4516 4.94L45.3816 4.64C44.8683 4.42667 44.415 4.35667 44.0216 4.43C43.7283 4.51667 43.5016 4.75 43.3416 5.13ZM50.4122 3.7C50.5789 3.70667 50.7122 3.94333 50.8122 4.41C51.2722 4.10333 51.7689 3.94667 52.3022 3.94L52.7122 3.96C53.8389 4.09333 54.2855 5.29 54.0522 7.55C54.0255 7.87667 53.8222 8.02667 53.4422 8C53.2155 7.99333 53.1055 7.79667 53.1122 7.41C53.0989 6.83667 53.0889 6.28 53.0822 5.74C53.0089 5.20667 52.7855 4.94333 52.4122 4.95C51.6455 4.91 51.2122 5.18333 51.1122 5.77C51.0589 5.93 51.0022 6.56333 50.9422 7.67C50.8955 7.81 50.8089 7.89667 50.6822 7.93C50.5955 7.97 50.5089 7.98 50.4222 7.96C50.2689 8 50.1289 7.96333 50.0022 7.85C49.9089 7.65 49.9122 6.72667 50.0122 5.08C49.9055 4.63333 49.8522 4.26667 49.8522 3.98C49.9922 3.78 50.1789 3.68667 50.4122 3.7ZM57.62 2.51C58.8667 2.71667 59.49 3.05 59.49 3.51V3.64C59.49 3.82667 59.4667 4.07333 59.42 4.38C59.6467 5.65333 59.75 6.35 59.73 6.47L60.32 6.46L60.69 6.45C60.9567 6.55 61.09 6.70333 61.09 6.91C61.09 7.15667 60.98 7.29 60.76 7.31H59.82V7.91C59.82 9.05667 59.2867 9.77 58.22 10.05C57.92 10.0967 57.6767 10.12 57.49 10.12H57.09C56.4833 10.12 56.1267 9.56333 56.02 8.45C56.3 7.20333 56.9233 6.58 57.89 6.58C58.5567 6.53333 58.89 6.49 58.89 6.45C58.89 5.87 58.8233 5.58 58.69 5.58C58.69 5.74667 58.4233 5.85667 57.89 5.91C57.0233 5.91 56.4433 5.46667 56.15 4.58V4.04C56.3767 3.02 56.8667 2.51 57.62 2.51ZM57.05 4.28V4.34C57.05 4.64 57.2733 4.84333 57.72 4.95H57.99C58.13 4.95 58.26 4.72667 58.38 4.28V3.78C58.1 3.63333 57.88 3.56 57.72 3.56H57.61C57.2367 3.61333 57.05 3.85333 57.05 4.28ZM57 8.53V8.66C57 9 57.1067 9.21667 57.32 9.31C58.4467 9.31 59.01 8.94333 59.01 8.21V7.36C58.2433 7.36 57.6933 7.47667 57.36 7.71C57.22 7.81 57.12 7.93333 57.06 8.08L57 8.53ZM63.0485 9.33H63.4285H66.9085C67.2285 9.37667 67.3885 9.52667 67.3885 9.78C67.3552 10.0267 67.2385 10.18 67.0385 10.24L66.4785 10.23H63.2685C62.8752 10.23 62.6785 10.0567 62.6785 9.71C62.6718 9.51 62.7952 9.38333 63.0485 9.33ZM72.638 0.49C72.7647 0.49 72.878 0.616666 72.978 0.869999C72.998 1.41667 73.008 1.81667 73.008 2.07V4.76C73.0347 5.40667 73.0714 6.09667 73.118 6.83C73.1114 7.05 73.1014 7.20667 73.088 7.3C72.7147 7.9 72.0914 8.2 71.218 8.2C69.9647 7.93333 69.3447 7.22 69.358 6.06L69.348 5.36C69.4214 4.47333 70.068 3.95 71.288 3.79C71.5614 3.73667 71.788 3.71 71.968 3.71L72.118 3.64V1.39C72.118 1.27667 72.1147 1.14667 72.108 1C72.1147 0.66 72.2914 0.49 72.638 0.49ZM70.268 5.27C70.1547 5.57 70.138 5.91667 70.218 6.31C70.338 6.89 70.6714 7.19667 71.218 7.23H71.368C71.468 7.23 71.728 7.16 72.148 7.02C72.2214 6.96667 72.2514 6.89 72.238 6.79L72.168 4.99C72.0547 4.78333 71.8614 4.68 71.588 4.68H71.518C70.8514 4.67333 70.4347 4.87 70.268 5.27ZM78.3324 3.59C79.0524 3.66333 79.5391 4.09667 79.7924 4.89C79.8791 5.17667 79.9224 5.46 79.9224 5.74C79.7691 7.17333 79.2191 7.96667 78.2724 8.12H77.4224C76.1024 7.94667 75.4424 7.37333 75.4424 6.4V5.81C75.6158 4.35667 76.2091 3.61 77.2224 3.57C77.6291 3.54333 77.9991 3.55 78.3324 3.59ZM76.4224 6.12C76.4224 6.76667 76.9324 7.09 77.9524 7.09H78.0124C78.5391 7.01 78.8424 6.60333 78.9224 5.87V5.43C78.8558 5.11 78.6958 4.84667 78.4424 4.64L78.0724 4.54C77.8324 4.52 77.5591 4.52333 77.2524 4.55C76.8924 4.65 76.6358 4.94333 76.4824 5.43C76.4424 5.71667 76.4224 5.94667 76.4224 6.12ZM82.7403 3.7C82.907 3.70667 83.0403 3.94333 83.1403 4.41C83.6003 4.10333 84.097 3.94667 84.6303 3.94L85.0403 3.96C86.167 4.09333 86.6136 5.29 86.3803 7.55C86.3536 7.87667 86.1503 8.02667 85.7703 8C85.5436 7.99333 85.4336 7.79667 85.4403 7.41C85.427 6.83667 85.417 6.28 85.4103 5.74C85.337 5.20667 85.1136 4.94333 84.7403 4.95C83.9736 4.91 83.5403 5.18333 83.4403 5.77C83.387 5.93 83.3303 6.56333 83.2703 7.67C83.2236 7.81 83.137 7.89667 83.0103 7.93C82.9236 7.97 82.837 7.98 82.7503 7.96C82.597 8 82.457 7.96333 82.3303 7.85C82.237 7.65 82.2403 6.72667 82.3403 5.08C82.2336 4.63333 82.1803 4.26667 82.1803 3.98C82.3203 3.78 82.507 3.68667 82.7403 3.7ZM89.9481 2.51C91.1948 2.71667 91.8181 3.05 91.8181 3.51V3.64C91.8181 3.82667 91.7948 4.07333 91.7481 4.38C91.9748 5.65333 92.0781 6.35 92.0581 6.47L92.6481 6.46L93.0181 6.45C93.2848 6.55 93.4181 6.70333 93.4181 6.91C93.4181 7.15667 93.3081 7.29 93.0881 7.31H92.1481V7.91C92.1481 9.05667 91.6148 9.77 90.5481 10.05C90.2481 10.0967 90.0048 10.12 89.8181 10.12H89.4181C88.8115 10.12 88.4548 9.56333 88.3481 8.45C88.6281 7.20333 89.2515 6.58 90.2181 6.58C90.8848 6.53333 91.2181 6.49 91.2181 6.45C91.2181 5.87 91.1515 5.58 91.0181 5.58C91.0181 5.74667 90.7515 5.85667 90.2181 5.91C89.3515 5.91 88.7715 5.46667 88.4781 4.58V4.04C88.7048 3.02 89.1948 2.51 89.9481 2.51ZM89.3781 4.28V4.34C89.3781 4.64 89.6015 4.84333 90.0481 4.95H90.3181C90.4581 4.95 90.5881 4.72667 90.7081 4.28V3.78C90.4281 3.63333 90.2081 3.56 90.0481 3.56H89.9381C89.5648 3.61333 89.3781 3.85333 89.3781 4.28ZM89.3281 8.53V8.66C89.3281 9 89.4348 9.21667 89.6481 9.31C90.7748 9.31 91.3381 8.94333 91.3381 8.21V7.36C90.5715 7.36 90.0215 7.47667 89.6881 7.71C89.5481 7.81 89.4481 7.93333 89.3881 8.08L89.3281 8.53ZM96.6266 2.51C97.8733 2.71667 98.4966 3.05 98.4966 3.51V3.64C98.4966 3.82667 98.4733 4.07333 98.4266 4.38C98.6533 5.65333 98.7566 6.35 98.7366 6.47L99.3266 6.46L99.6966 6.45C99.9633 6.55 100.097 6.70333 100.097 6.91C100.097 7.15667 99.9866 7.29 99.7666 7.31H98.8266V7.91C98.8266 9.05667 98.2933 9.77 97.2266 10.05C96.9266 10.0967 96.6833 10.12 96.4966 10.12H96.0966C95.49 10.12 95.1333 9.56333 95.0266 8.45C95.3066 7.20333 95.93 6.58 96.8966 6.58C97.5633 6.53333 97.8966 6.49 97.8966 6.45C97.8966 5.87 97.83 5.58 97.6966 5.58C97.6966 5.74667 97.43 5.85667 96.8966 5.91C96.03 5.91 95.45 5.46667 95.1566 4.58V4.04C95.3833 3.02 95.8733 2.51 96.6266 2.51ZM96.0566 4.28V4.34C96.0566 4.64 96.28 4.84333 96.7266 4.95H96.9966C97.1366 4.95 97.2666 4.72667 97.3866 4.28V3.78C97.1066 3.63333 96.8866 3.56 96.7266 3.56H96.6166C96.2433 3.61333 96.0566 3.85333 96.0566 4.28ZM96.0066 8.53V8.66C96.0066 9 96.1133 9.21667 96.3266 9.31C97.4533 9.31 98.0166 8.94333 98.0166 8.21V7.36C97.25 7.36 96.7 7.47667 96.3666 7.71C96.2266 7.81 96.1266 7.93333 96.0666 8.08L96.0066 8.53ZM105.445 3.43C105.772 3.47 105.948 3.65667 105.975 3.99C105.935 4.66333 105.908 5.20333 105.895 5.61L105.945 7.57C105.905 7.90333 105.752 8.06667 105.485 8.06C105.232 7.95333 105.115 7.72667 105.135 7.38C104.575 7.87333 104.022 8.11 103.475 8.09C102.455 8.06333 101.932 7.26 101.905 5.68L101.955 4.03C102.095 3.81 102.258 3.70667 102.445 3.72C102.705 3.74 102.865 3.85 102.925 4.05L102.905 4.63C102.805 5.96333 102.888 6.74333 103.155 6.97C103.342 7.07 103.512 7.10667 103.665 7.08C104.672 6.98 105.122 6.16333 105.015 4.63L105.025 4.05C105.005 3.66333 105.145 3.45667 105.445 3.43ZM108.917 3.7C109.084 3.70667 109.217 3.94333 109.317 4.41C109.777 4.10333 110.274 3.94667 110.807 3.94L111.217 3.96C112.344 4.09333 112.791 5.29 112.557 7.55C112.531 7.87667 112.327 8.02667 111.947 8C111.721 7.99333 111.611 7.79667 111.617 7.41C111.604 6.83667 111.594 6.28 111.587 5.74C111.514 5.20667 111.291 4.94333 110.917 4.95C110.151 4.91 109.717 5.18333 109.617 5.77C109.564 5.93 109.507 6.56333 109.447 7.67C109.401 7.81 109.314 7.89667 109.187 7.93C109.101 7.97 109.014 7.98 108.927 7.96C108.774 8 108.634 7.96333 108.507 7.85C108.414 7.65 108.417 6.72667 108.517 5.08C108.411 4.63333 108.357 4.26667 108.357 3.98C108.497 3.78 108.684 3.68667 108.917 3.7ZM115.545 1.22H115.615C115.955 1.22 116.125 1.39333 116.125 1.74V4.87C117.465 3.81 118.318 3.28 118.685 3.28C118.978 3.39333 119.108 3.54667 119.075 3.74C119.015 3.90667 118.545 4.29 117.665 4.89C117.225 5.23667 117.005 5.42333 117.005 5.45C118.212 6.33667 118.948 6.96 119.215 7.32V7.62C119.135 7.81333 118.965 7.91 118.705 7.91C118.625 7.91 118.258 7.64333 117.605 7.11C117.465 7.02333 116.995 6.64 116.195 5.96C116.148 6.05333 116.125 6.12667 116.125 6.18C116.125 6.41333 116.148 6.87333 116.195 7.56C116.095 7.85333 115.998 8 115.905 8H115.725H115.545C115.438 7.98 115.338 7.85667 115.245 7.63C115.198 5.53667 115.175 3.86333 115.175 2.61V1.95C115.175 1.57667 115.298 1.33333 115.545 1.22Z" fill="#AA9887"/>
</svg>
